<svg xmlns="http://www.w3.org/2000/svg" viewBox="0 0 120 120">
  <defs>
    <linearGradient id="grad" x1="0%" y1="0%" x2="100%" y2="100%">
      <stop offset="0%" stop-color="#0d0d0f" />
      <stop offset="100%" stop-color="#1d1d1f" />
    </linearGradient>
  </defs>
  <rect width="120" height="120" rx="28" fill="url(#grad)" />
  <path
    d="M64.8 26.2c3.5-2.6 7.8-4.3 11.8-4.4.5 4.7-1.4 9.3-4.4 12.4-2.9 3.1-7.4 4.9-11.8 4.6-.6-4.6 1.9-9.3 4.4-12.6zM80.5 44.4c-1.8-2.1-4.1-3.3-6.7-3.3-3.2 0-6.7 1.8-9.4 1.8-2.9 0-6.4-1.7-9.5-1.7-4.9 0-9.9 2.9-12.6 7.7-4.4 7.6-1.1 18.8 3.2 25.0 2.1 3.2 4.8 6.8 8.3 6.7 3.4-.1 4.7-2.2 8.8-2.2 4.1 0 5.2 2.2 8.8 2.1 3.6-.1 5.9-3.3 7.9-6.5 2.5-3.6 3.5-7 3.6-7.1-.1-.1-6.9-2.7-7-10.6 0-6.6 5.3-9.6 5.5-9.8z"
    fill="#f5f5f7"
  />
</svg>

